<svg width="59" height="65" viewBox="0 0 59 65" fill="none" xmlns="http://www.w3.org/2000/svg">
<path d="M35.7568 9.60851C35.7568 6.10316 38.6042 3.26712 42.0982 3.26712H42.291C45.7964 3.26712 48.6438 6.10316 48.6438 9.60851V16.2562C48.6438 19.7615 45.7964 22.6089 42.291 22.6089H42.0982C38.5928 22.6089 35.7568 19.7615 35.7568 16.2562V9.60851ZM48.7005 29.1658H48.5417L42.1209 35.5866L41.7238 35.1896L35.6434 29.1091H31.9678C31.5708 30.2322 30.9582 31.412 30.1982 32.2968C30.1074 32.4103 30.0053 32.5124 29.9032 32.6145C29.7671 32.7506 29.6309 32.8867 29.4948 33.0229C29.336 33.1703 29.1772 33.3178 29.007 33.4539C28.9049 33.5333 28.8028 33.6127 28.6894 33.6922C28.5306 33.8056 28.3831 33.919 28.2243 34.0211C28.1335 34.0779 28.0427 34.1459 27.952 34.2026C27.7024 34.3501 27.4529 34.4976 27.192 34.6224C27.1012 34.6678 27.0218 34.7018 26.931 34.7472C26.7268 34.8379 26.5113 34.9287 26.2958 35.0194C26.2163 35.0535 26.1256 35.0875 26.0349 35.1102C25.7399 35.2123 25.445 35.303 25.15 35.3711C25.0933 35.3824 25.0366 35.3938 24.9798 35.4051C24.7189 35.4618 24.4467 35.5072 24.1858 35.5412C24.095 35.5526 24.0156 35.5639 23.9248 35.5753C23.5958 35.6093 23.2669 35.632 22.9379 35.632H22.6429C17.3452 35.632 13.0458 31.3326 13.0458 26.0348V19.1603C13.0458 13.8626 17.3452 9.56313 22.6429 9.56313H22.9379C27.8159 9.56313 32.0132 13.2159 32.6145 17.9351C33.3859 22.4614 37.3223 25.9101 42.0641 25.9101H42.3591C47.6568 25.9101 51.9562 21.6106 51.9562 16.3129V9.59716C51.9562 4.29944 47.6568 0 42.3591 0H42.0641C39.3869 0 36.982 1.08904 35.235 2.85872L32.3195 5.77417L29.0751 4.43556C27.1466 3.65282 25.0819 3.24443 22.9946 3.24443H22.5976C13.6584 3.24443 6.4208 10.4933 6.4208 19.4212V26.0122C6.46618 29.9259 7.44176 32.7733 8.64425 34.8152C4.04986 37.6286 0 43.3347 0 49.279V61.6442C0 63.4365 1.45204 64.8886 3.24441 64.8886C5.03679 64.8886 6.48886 63.4365 6.48886 61.6442V50.9126C6.48886 44.5145 11.5483 39.2962 17.8557 38.9218L22.7337 43.8111L27.589 38.9105C33.9531 39.2168 39.0239 44.4691 39.0239 50.9012V64.8999L57.6283 46.2615C58.1502 45.7397 58.4338 45.0363 58.4338 44.3103V38.8991C58.4451 33.522 54.0776 29.1658 48.7005 29.1658Z" fill="url(#paint0_linear)"/>
<defs>
<linearGradient id="paint0_linear" x1="0" y1="0" x2="58.4338" y2="0" gradientUnits="userSpaceOnUse">
<stop offset="0.166667" stop-color="#7A2180"/>
<stop offset="0.953125" stop-color="#E40276"/>
</linearGradient>
</defs>
</svg>
