<svg id="Layer_1" data-name="Layer 1" xmlns="http://www.w3.org/2000/svg" xmlns:xlink="http://www.w3.org/1999/xlink" viewBox="0 0 300 300"><defs><style>.cls-1{fill:url(#Gradiente_sem_nome_5);}</style><linearGradient id="Gradiente_sem_nome_5" x1="1" y1="150" x2="299" y2="150" gradientUnits="userSpaceOnUse"><stop offset="0" stop-color="#780096"/><stop offset="1" stop-color="#ff0082"/></linearGradient></defs><path class="cls-1" d="M242.44,1H57.56A56.61,56.61,0,0,0,1,57.56V242.44A56.61,56.61,0,0,0,57.56,299H242.44A56.61,56.61,0,0,0,299,242.44V57.56A56.61,56.61,0,0,0,242.44,1ZM272.5,226A46.54,46.54,0,0,1,226,272.49H74A46.54,46.54,0,0,1,27.5,226V74A46.54,46.54,0,0,1,74,27.51H226A46.54,46.54,0,0,1,272.5,74Zm-87.26,26h44.37a8.35,8.35,0,0,1-8.34,8.34H193.58A8.34,8.34,0,0,1,185.24,252Zm44.37-4.25H185.23v-7.95h44.38ZM207.42,125.15a49,49,0,0,0-32.62,12.4V92a10.22,10.22,0,0,0-3-7.23l-30.7-30.7a10.22,10.22,0,0,0-7.45-3L54.47,52.82a10.23,10.23,0,0,0-10,10.23v93a10.23,10.23,0,0,0,10.23,10.23H159a49.56,49.56,0,0,0-.66,8,49,49,0,0,0,14.06,34.39h0c6.05,6.05,12.9,13.64,12.92,22.28v4.64h44.38v-5.18c.28-8,6.35-15.14,12.06-20.92a49.11,49.11,0,0,0-34.25-84.34Zm-118.67,21a3.37,3.37,0,0,1-3.37,3.38h-21A3.37,3.37,0,0,1,61,146.11V81.5a3.37,3.37,0,0,1,3.37-3.38h21a3.37,3.37,0,0,1,3.37,3.38Zm34.76,0a3.38,3.38,0,0,1-3.38,3.38h-21a3.37,3.37,0,0,1-3.37-3.38V116.73a3.37,3.37,0,0,1,3.37-3.38h21a3.38,3.38,0,0,1,3.38,3.38Zm34.78,0a3.38,3.38,0,0,1-3.38,3.38h-21a3.38,3.38,0,0,1-3.38-3.38V73.61a3.37,3.37,0,0,1,5.68-2.47l21,19.65a3.34,3.34,0,0,1,1.08,2.46Zm69,43.31-15.76,15.79v18.22h-8.21V205.14L188,189a4.11,4.11,0,1,1,6-5.64l13.5,14.29,14-14a4.1,4.1,0,1,1,5.81,5.8Z"/></svg>